<?xml version="1.0" encoding="UTF-8" standalone="no"?>
<svg width="19px" height="18px" viewBox="0 0 19 18" version="1.1" xmlns="http://www.w3.org/2000/svg" xmlns:xlink="http://www.w3.org/1999/xlink" xmlns:sketch="http://www.bohemiancoding.com/sketch/ns">
    <!-- Generator: Sketch 3.4.4 (17249) - http://www.bohemiancoding.com/sketch -->
    <title>Instagram</title>
    <desc>Created with Sketch.</desc>
    <defs></defs>
    <g id="Page-1" stroke="none" stroke-width="1" fill="none" fill-rule="evenodd" sketch:type="MSPage">
        <g id="Splash-Page-Email-Sign-Up" sketch:type="MSArtboardGroup" transform="translate(-1190.000000, -641.000000)" fill="#A39594">
            <g id="Social-Links" sketch:type="MSLayerGroup" transform="translate(1161.000000, 641.000000)">
                <g id="Instagram" transform="translate(29.000000, 0.000000)" sketch:type="MSShapeGroup">
                    <path d="M18.5000496,2.62495968 C18.5000496,1.18745591 17.3125465,-4.72068787e-05 15.8750427,-4.72068787e-05 L3.12500927,-4.72068787e-05 C1.6875055,-4.72068787e-05 0.500002384,1.18745591 0.500002384,2.62495968 L0.500002384,5.62496755 L5.97918342,5.62496755 C6.8750191,4.70829847 8.12502238,4.12496361 9.50002599,4.12496361 C10.8750296,4.12496361 12.1250329,4.70829847 13.0208686,5.62496755 L18.5000496,5.62496755 L18.5000496,2.62495968 Z" id="Path"></path>
                    <path d="M9.50002599,12.3749852 C11.3541975,12.3749852 12.8750348,10.8749813 12.8750348,8.9999764 C12.8750348,7.14580487 11.3541975,5.62496755 9.50002599,5.62496755 C7.62502107,5.62496755 6.12501714,7.14580487 6.12501714,8.9999764 C6.12501714,10.8749813 7.62502107,12.3749852 9.50002599,12.3749852 L9.50002599,12.3749852 Z" id="Path"></path>
                    <path d="M14.0000378,7.12497148 C14.2500384,7.70830634 14.3750388,8.33330798 14.3750388,8.9999764 C14.3750388,11.6874834 12.187533,13.8749892 9.50002599,13.8749892 C6.81251894,13.8749892 4.6250132,11.6874834 4.6250132,8.9999764 C4.6250132,8.33330798 4.75001353,7.70830634 5.00001419,7.12497148 L0.500002384,7.12497148 L0.500002384,15.3749931 C0.500002384,16.8124969 1.6875055,18 3.12500927,18 L15.8750427,18 C17.3125465,18 18.5000496,16.8124969 18.5000496,15.3749931 L18.5000496,7.12497148 L14.0000378,7.12497148 Z" id="Path"></path>
                </g>
            </g>
        </g>
    </g>
</svg>