<?xml version="1.0" encoding="UTF-8" standalone="no"?>
<svg width="14px" height="18px" viewBox="0 0 14 18" version="1.1" xmlns="http://www.w3.org/2000/svg" xmlns:xlink="http://www.w3.org/1999/xlink" xmlns:sketch="http://www.bohemiancoding.com/sketch/ns">
    <!-- Generator: Sketch 3.4.4 (17249) - http://www.bohemiancoding.com/sketch -->
    <title>Pinterest</title>
    <desc>Created with Sketch.</desc>
    <defs></defs>
    <g id="Page-1" stroke="none" stroke-width="1" fill="none" fill-rule="evenodd" sketch:type="MSPage">
        <g id="Splash-Page-Email-Sign-Up" sketch:type="MSArtboardGroup" transform="translate(-1228.000000, -641.000000)" fill="#A39594">
            <g id="Social-Links" sketch:type="MSLayerGroup" transform="translate(1161.000000, 641.000000)">
                <path d="M67,6.45835027 C67,8.22918825 67.6666684,9.81252573 69.1041722,10.416694 C69.3541728,10.5000275 69.5625067,10.416694 69.6250069,10.1458599 C69.6666737,9.97919284 69.791674,9.5208583 69.8333408,9.31252442 C69.8958409,9.06252377 69.8750075,8.97919022 69.687507,8.75002295 C69.2708393,8.25002164 69.0000052,7.62502 69.0000052,6.70835093 C69.0000052,4.10417743 70.9583437,1.77083798 74.1041853,1.77083798 C76.8750259,1.77083798 78.3958632,3.4583424 78.3958632,5.72918169 C78.3958632,8.70835617 77.0833598,11.2291961 75.1250213,11.2291961 C74.0416851,11.2291961 73.229183,10.3333604 73.4791837,9.22919087 C73.7916845,7.91668743 74.3958527,6.50001705 74.3958527,5.56251459 C74.3958527,4.70834568 73.9375182,4.02084388 73.0000157,4.02084388 C71.8958462,4.02084388 71.0208439,5.14584683 71.0208439,6.68751754 C71.0208439,7.66668677 71.3333447,8.33335519 71.3333447,8.33335519 C71.3333447,8.33335519 70.2083417,13.1250344 70.0208413,13.9583699 C69.6250069,15.625041 69.9583411,17.6875464 69.9791745,17.8958803 C70.0000079,18.0000472 70.1458416,18.041714 70.2291751,17.937547 C70.3333421,17.8125467 71.6458455,16.1875425 72.0833467,14.5625382 C72.2291804,14.1042037 72.8125152,11.7291974 72.8125152,11.7291974 C73.1875162,12.4166992 74.2291856,13.0000341 75.3541886,13.0000341 C78.6666973,13.0000341 80.9167032,9.97919284 80.9167032,5.91668218 C80.9167032,2.85417415 78.3333631,0 74.3750193,0 C69.4583398,0 67,3.52084257 67,6.45835027 Z" id="Pinterest" sketch:type="MSShapeGroup"></path>
            </g>
        </g>
    </g>
</svg>